# xmcd
#
# Track frame offsets:
#	150
#	10670
#	21655
#	31987
#	41807
#	50930
#	61385
#	74892
#	85552
#	96440
#	107182
#	117880
#	126707
#	137302
#	147837
#	157077
#	167667
#	176250
#	185125
#	198482
#	207492
#	216645
#	225772
#	236325
#	246667
#	254785
#	262925
#	275502
#	285755
#	294725
#
# Disc length: 4060 seconds
#
# Revision: 1
# Processed by: cddbd v1.5.1PL0 Copyright (c) Steve Scherf et al.
# Submitted via: audiograbber 1.83.01
#
DISCID=da0fda1e
DTITLE=Various Artist - The Ebb Records Story volume 1
DYEAR=2001
DGENRE=Doowop
TTITLE0=Hollywood Flames - Buzz-Buzz-Buzz-1957
TTITLE1=Ambers featuring Ralph - Never Let You Go-1958
TTITLE2=Ebbtones - I've Got A Feeling-1957
TTITLE3=Souvenirs - Voo-Doo Love-1958
TTITLE4=Roulettes - The Way You Carry On-1957
TTITLE5=5 Orleans - Heavenly Escort-1957
TTITLE6=Ebbtones - Danny's Blues-1957
TTITLE7=Fabulous Tones - Close To You-1958
TTITLE8=Casulairs - At The Dance-1962
TTITLE9=Twilighters - Live Like A King-1957
TTITLE10=Tempo-Mentals - Dearest-1957
TTITLE11=Sammy Vance and Group - Run, Run, Run-1958
TTITLE12=Kip Tyler - Oh Linda-1959
TTITLE13=Tempo-Mentals - Burning Desire-1957
TTITLE14=Sammy Vance and Group - Guilty Of Love-1958
TTITLE15=Ebbtones - Trinidad Woman-1957
TTITLE16=Roulettes - You Don't Care Anymore-1957
TTITLE17=Twilighters - Pride And Joy-1957
TTITLE18=Ebbtones - Fool For Affection-1957
TTITLE19=5 Orleans - All Aboard-1957
TTITLE20=Souvenirs - Bump-De-Bump-1957
TTITLE21=Jaguars - As Days Go By-1957
TTITLE22=Jaguars - Hold Me Tight-1957
TTITLE23=Ted Taylor - Wrapped Up In A Dream-1958
TTITLE24=Cornel Gunter and The Ermines - I'll Make A Bet (take 2)-1958
TTITLE25=Cornel Gunter and The Ermines - He Judges (take 4)-1958
TTITLE26=M&M's - There In The Night-1958
TTITLE27=Tony Allen and Group - It Hurts To Be Hurt-1958
TTITLE28=Zion Travelers - Beautiful City-1957
TTITLE29=Zion Travelers - Believe In Me-1957
EXTD=
EXTT0=
EXTT1=
EXTT2=
EXTT3=
EXTT4=
EXTT5=
EXTT6=
EXTT7=
EXTT8=
EXTT9=
EXTT10=
EXTT11=
EXTT12=
EXTT13=
EXTT14=
EXTT15=
EXTT16=
EXTT17=
EXTT18=
EXTT19=
EXTT20=
EXTT21=
EXTT22=
EXTT23=
EXTT24=
EXTT25=
EXTT26=
EXTT27=
EXTT28=
EXTT29=
PLAYORDER=
